<svg width="89" height="36" viewBox="0 0 267 108" fill="none" xmlns="http://www.w3.org/2000/svg">
<g clip-path="url(#clip0_56_10)">
<path d="M159.121 0.156279C159.05 0.142069 158.979 0.156279 158.908 0.156279C158.851 0.156279 158.794 0.156279 158.723 0.156279V0.17049C148.043 0.298384 138.215 5.7268 132.378 11.7094C136.014 16.2426 138.698 21.5432 140.175 27.3268C143.243 21.7989 151.167 15.5605 159.064 15.8874C170.923 16.0153 180.75 25.6642 180.75 37.5442V37.6863C180.679 49.5947 171.008 59.2011 159.106 59.2011C147.191 59.2011 137.533 49.5947 137.462 37.6863V37.5442C137.462 28.9611 134.565 21.06 129.708 14.7505C122.891 5.86891 112.168 0.156279 100.111 0.156279C79.4893 0.156279 62.7876 16.8537 62.7308 37.4732V37.6863C62.7734 47.9747 66.963 57.2968 73.7233 64.0326C80.4835 70.7684 92.8393 76.6232 104.087 75.0174V74.9321C112.836 73.8521 120.647 69.7595 126.456 63.7058C122.777 59.2011 120.036 53.9289 118.503 48.1595C115.449 53.7868 109.967 57.9079 103.448 59.1158V59.2153C89.5302 61.2189 78.5236 49.41 78.4526 37.6863C78.4952 31.7463 80.9237 26.3605 84.8435 22.4668C88.7491 18.5732 94.1317 16.1716 100.097 16.1716C112.055 16.1716 121.741 25.5789 121.741 37.5442V37.5584C121.741 37.6011 121.741 37.6579 121.741 37.7005C121.769 46.3547 124.737 54.3268 129.708 60.6505C136.539 69.3616 147.177 74.9605 159.106 74.9605C179.742 74.9605 196.486 58.5047 196.486 37.8426V37.5584C196.501 17.0242 179.586 0.369437 159.121 0.156279Z" fill="#00AEEF"/>
<path d="M63.7391 63.9332C60.0466 59.4284 57.2914 54.1279 55.7576 48.33C52.6899 53.9716 47.1937 57.8795 40.6749 59.1016C39.6381 59.2437 38.5872 59.3289 37.5078 59.3289C31.5287 59.3289 26.1177 56.9132 22.1979 53.0053C18.2781 49.0974 15.8354 43.6974 15.7928 37.7289C15.878 25.9626 26.8988 14.0968 40.8879 16.1147C41.101 16.1432 41.314 16.1716 41.527 16.2142C47.2505 17.7347 52.0224 21.33 54.806 26.3179C56.3398 20.6621 59.0951 15.4895 62.7876 11.0842C56.8085 5.01632 48.7275 0.937895 39.6949 0V0.0710526V0.0852632C30.989 -0.55421 21.8287 2.97 15.2531 7.73053C13.6909 8.86737 12.2706 10.0611 11.0351 11.2832C4.24644 18.0616 0.0426064 27.4121 0 37.7432V37.9563C0 38.2974 0 38.6242 0.0142021 38.9653V38.9795C0.596489 59.2011 17.1562 75.4153 37.5078 75.4153C38.573 75.4153 39.6239 75.3726 40.6607 75.2874V75.3016C49.7074 74.3353 57.7743 70.1574 63.7391 63.9332Z" fill="#00AEEF"/>
<path d="M234.903 0.269989C217.151 0.269989 202.778 14.7221 202.778 32.5847C202.778 33.2526 202.806 33.9347 202.849 34.5884V100.326L205.846 103.069V51.2289H205.917C206.101 50.6747 206.627 50.2768 207.266 50.2768C207.905 50.2768 208.43 50.6747 208.615 51.2289H208.672C208.672 51.2431 208.686 51.2574 208.686 51.2574V106.749H208.828L211.825 103.794L216.866 97.7542V94.8979L214.409 92.7095L215.773 89.441V86.9826L213.998 86.1584L213.87 81.5258L215.773 79.7495V75.941L213.316 74.1647V71.0526L218.088 68.1821V60.1105C222.988 63.1374 228.739 64.8853 234.903 64.8853C252.627 64.8853 267 50.4047 267 32.5705C267 14.7221 252.613 0.269989 234.903 0.269989ZM234.903 51.6268C224.436 51.6268 215.958 43.1147 215.958 32.5847C215.958 22.0547 224.436 13.5 234.903 13.5C245.356 13.5 253.82 22.0405 253.82 32.5705C253.82 43.1005 245.356 51.6268 234.903 51.6268Z" fill="#00AEEF"/>
<path d="M0.269836 81.4691C1.43441 81.2417 3.82037 81.071 6.0359 81.071C8.76271 81.071 10.4386 81.327 11.873 82.1512C13.2506 82.8617 14.2447 84.1691 14.2447 85.9028C14.2447 87.608 13.2222 89.1995 10.9924 90.0095V90.0665C13.2506 90.6633 14.9264 92.3116 14.9264 94.7984C14.9264 96.5321 14.1027 97.8965 12.8813 98.877C11.4469 99.9854 9.04675 100.611 5.11276 100.611C2.91143 100.611 1.27819 100.468 0.284039 100.326V81.4691H0.269836ZM4.6867 88.8158H6.14951C8.49287 88.8158 9.75685 87.8779 9.75685 86.4568C9.75685 85.0074 8.62068 84.24 6.58978 84.24C5.62404 84.24 5.07015 84.297 4.6867 84.3538V88.8158ZM4.6867 97.3279C5.12696 97.3847 5.65244 97.3847 6.41935 97.3847C8.43606 97.3847 10.2255 96.6458 10.2255 94.6279C10.2255 92.6953 8.43606 91.928 6.20632 91.928H4.6867V97.3279Z" fill="#00AEEF"/>
<path d="M26.0467 100.397L25.7769 99.0047H25.6916C24.7543 100.113 23.2915 100.71 21.5872 100.71C18.69 100.71 16.9573 98.6637 16.9573 96.4326C16.9573 92.8232 20.2948 91.0753 25.365 91.1037V90.9047C25.365 90.1658 24.9531 89.1142 22.7518 89.1142C21.289 89.1142 19.7268 89.5974 18.7894 90.1658L17.9657 87.3805C18.9598 86.8405 20.9197 86.1584 23.5329 86.1584C28.3048 86.1584 29.8387 88.8868 29.8387 92.1695V97.0153C29.8387 98.351 29.8955 99.63 30.0375 100.397H26.0467ZM25.5212 93.8179C23.1779 93.7895 21.36 94.3295 21.36 96.0063C21.36 97.1147 22.1269 97.6547 23.1211 97.6547C24.2288 97.6547 25.1378 96.9442 25.436 96.0632C25.4928 95.8358 25.5212 95.58 25.5212 95.3242V93.8179Z" fill="#00AEEF"/>
<path d="M33.375 90.9189C33.375 89.1853 33.3182 87.7074 33.2614 86.471H37.1244L37.3232 88.3753H37.4084C37.9907 87.4942 39.4535 86.1584 41.8395 86.1584C44.7651 86.1584 46.9664 88.0342 46.9664 92.141V100.397H42.507V92.681C42.507 90.8905 41.8679 89.6684 40.2488 89.6684C39.0132 89.6684 38.2889 90.4926 37.9907 91.2884C37.8771 91.5442 37.8203 91.9705 37.8203 92.3684V100.397H33.375V90.9189Z" fill="#00AEEF"/>
<path d="M54.9906 92.3401H55.0475C55.3741 91.7717 55.715 91.2033 56.07 90.6633L58.9672 86.4854H64.3356L59.2087 92.127L65.0742 100.412H59.5921L56.141 94.6849L55.0048 96.0489V100.412H50.5454V80.1901H55.0048V92.3401H54.9906Z" fill="#00AEEF"/>
<path d="M86.491 93.2779C86.491 98.3795 82.77 100.71 78.9354 100.71C74.7458 100.71 71.5219 98.0384 71.5219 93.5337C71.5219 89.0289 74.5754 86.1584 79.1769 86.1584C83.5653 86.1584 86.491 89.1 86.491 93.2779ZM76.1234 93.42C76.1234 95.8074 77.146 97.6121 79.049 97.6121C80.7817 97.6121 81.8895 95.9353 81.8895 93.42C81.8895 91.3453 81.0657 89.2279 79.049 89.2279C76.9187 89.2421 76.1234 91.3737 76.1234 93.42Z" fill="#00AEEF"/>
<path d="M89.7432 100.397V89.6684H87.8686V86.4853H89.7432V85.9453C89.7432 84.2684 90.2687 82.4211 91.5611 81.27C92.6689 80.2469 94.2311 79.8774 95.5235 79.8774C96.5177 79.8774 97.2846 79.9911 97.8953 80.1616L97.7248 83.4869C97.3414 83.3732 96.8727 83.2879 96.2904 83.2879C94.8276 83.2879 94.2169 84.3963 94.2169 85.7605V86.4711H97.0857V89.6542H94.2453V100.383H89.7432V100.397Z" fill="#00AEEF"/>
<path d="M123.388 90.6065C123.388 96.9017 119.454 100.71 113.688 100.71C107.823 100.71 104.4 96.4043 104.4 90.9475C104.4 85.1922 108.178 80.9007 114.015 80.9007C120.079 80.9007 123.388 85.3059 123.388 90.6065ZM109.115 90.8622C109.115 94.6138 110.933 97.2712 113.915 97.2712C116.94 97.2712 118.659 94.4859 118.659 90.7486C118.659 87.3096 116.955 84.3396 113.887 84.3396C110.876 84.3396 109.115 87.1249 109.115 90.8622Z" fill="#00AEEF"/>
<path d="M126.257 91.061C126.257 89.0147 126.2 87.6789 126.143 86.471H129.978L130.12 89.0289H130.234C130.972 87.011 132.719 86.1584 134.097 86.1584C134.508 86.1584 134.707 86.1584 135.034 86.2153V90.2937C134.707 90.2368 134.324 90.18 133.827 90.18C132.179 90.18 131.071 91.0326 130.773 92.3684C130.716 92.6526 130.688 92.9937 130.688 93.3347V100.397H126.257V91.061Z" fill="#00AEEF"/>
<path d="M151.338 93.2779C151.338 98.3795 147.617 100.71 143.782 100.71C139.593 100.71 136.369 98.0384 136.369 93.5337C136.369 89.0289 139.422 86.1584 144.024 86.1584C148.398 86.1584 151.338 89.1 151.338 93.2779ZM140.956 93.42C140.956 95.8074 141.979 97.6121 143.882 97.6121C145.614 97.6121 146.722 95.9353 146.722 93.42C146.722 91.3453 145.898 89.2279 143.882 89.2279C141.751 89.2421 140.956 91.3737 140.956 93.42Z" fill="#00AEEF"/>
<path d="M154.093 90.9189C154.093 89.1853 154.036 87.7074 153.979 86.471H157.729L157.928 88.3468H158.013C158.624 87.4658 159.888 86.1584 162.345 86.1584C164.191 86.1584 165.654 87.0679 166.279 88.5174H166.335C166.861 87.8068 167.514 87.2384 168.182 86.8405C168.977 86.3858 169.857 86.1584 170.908 86.1584C173.664 86.1584 175.737 88.0342 175.737 92.1979V100.397H171.405V92.8232C171.405 90.8053 170.738 89.64 169.289 89.64C168.267 89.64 167.528 90.3221 167.244 91.1463C167.131 91.4589 167.074 91.9137 167.074 92.2547V100.397H162.742V92.5958C162.742 90.8337 162.103 89.64 160.697 89.64C159.561 89.64 158.879 90.4926 158.624 91.2032C158.482 91.5442 158.453 91.9421 158.453 92.2832V100.397H154.121V90.9189H154.093Z" fill="#00AEEF"/>
<path d="M183.889 82.6058C183.889 83.7995 182.952 84.7658 181.489 84.7658C180.083 84.7658 179.146 83.7995 179.174 82.6058C179.146 81.3553 180.083 80.4174 181.517 80.4174C182.952 80.4174 183.861 81.3553 183.889 82.6058ZM179.288 100.397V86.471H183.747V100.397H179.288Z" fill="#00AEEF"/>
<path d="M195.464 100.397L195.194 99.0047H195.109C194.171 100.113 192.709 100.71 191.004 100.71C188.107 100.71 186.375 98.6637 186.375 96.4326C186.375 92.8232 189.712 91.0753 194.782 91.1037V90.9047C194.782 90.1658 194.37 89.1142 192.169 89.1142C190.706 89.1142 189.144 89.5974 188.207 90.1658L187.383 87.3805C188.377 86.8405 190.337 86.1584 192.95 86.1584C197.722 86.1584 199.256 88.8868 199.256 92.1695V97.0153C199.256 98.351 199.313 99.63 199.455 100.397H195.464ZM194.924 93.8179C192.581 93.7895 190.763 94.3295 190.763 96.0063C190.763 97.1147 191.53 97.6547 192.524 97.6547C193.632 97.6547 194.541 96.9442 194.839 96.0632C194.896 95.8358 194.924 95.58 194.924 95.3242V93.8179Z" fill="#00AEEF"/>
</g>
<defs>
<clipPath id="clip0_56_10">
<rect width="267" height="108" fill="white"/>
</clipPath>
</defs>
</svg>
