<svg width="186" height="117" viewBox="0 0 186 117" fill="none" xmlns="http://www.w3.org/2000/svg">
<path d="M139.967 81.4371L130.175 79.4796L119.234 91.8492V61L110.02 64.685V103.045C108.831 97.2336 103.019 95.6508 98.2187 94.3474C94.7002 93.3922 91.6614 92.5664 91.7895 90.1588C91.9164 87.7974 94.2635 86.8634 96.5325 86.9837C99.2137 87.1279 101.391 88.2336 103.013 90.2749L109.786 84.2587C106.112 80.1645 100.151 79.2549 96.8799 79.0799C89.3516 78.6782 81.5555 82.0059 81.1087 90.3496C81.0954 90.6068 81.089 90.8644 81.0896 91.1219C78.3982 84.2777 71.7337 79.4314 63.9318 79.4314C55.0031 79.4314 47.564 85.7784 45.8693 94.2043V61.0106L36.6542 64.6945V81.9036C33.8539 80.2806 30.6723 79.4276 27.4338 79.4314C17.253 79.4303 9 87.6781 9 97.8543C9 108.029 17.253 116.278 27.4338 116.278C36.7371 116.278 44.4259 109.387 45.6823 100.435C46.9387 109.387 54.628 116.278 63.9318 116.278C70.9363 116.278 77.0271 112.373 80.1466 106.623L70.1713 104.628C68.4747 106.197 66.2464 107.068 63.9334 107.066C60.1557 107.066 56.9103 104.792 55.4865 101.54H81.9953C82.3719 99.6862 82.4619 97.786 82.262 95.9052C84.3737 99.5632 88.9611 100.804 92.8626 101.859C96.5197 102.847 99.6785 103.701 99.5362 106.341C99.4358 108.244 97.3001 109.269 93.8268 109.083C90.6058 108.911 88.0978 107.554 85.9664 104.825L79.2057 111.562C83.1737 115.824 89.4913 116.773 92.9471 116.959C96.6435 117.157 108.29 117.01 110.02 107.728V116.282H119.234V100.175L133.478 116.278H145L127.077 96.0123L139.967 81.4371ZM31.6323 106.054C30.334 106.72 28.8951 107.067 27.4354 107.066C22.3455 107.066 18.2188 102.942 18.2188 97.8543C18.2188 92.7672 22.3455 88.6428 27.4349 88.6428C32.5243 88.6428 36.6505 92.7667 36.6505 97.8543C36.6505 99.8781 35.996 101.749 34.8889 103.269C35.0541 104.366 35.6645 105.585 37.2827 106.663C38.0652 107.184 35.0004 108.018 31.6323 106.054ZM55.487 94.1693C56.9092 90.9163 60.1557 88.6428 63.9334 88.6428C67.7116 88.6428 70.9581 90.9168 72.3802 94.1693H55.487Z" fill="white"/>
<path d="M162.62 0C150.12 0 140 10.17 140 22.74C140 23.21 140.02 23.69 140.05 24.15V70.41L142.16 72.34V35.86H142.21C142.34 35.47 142.71 35.19 143.16 35.19C143.61 35.19 143.98 35.47 144.11 35.86H144.15C144.15 35.87 144.16 35.88 144.16 35.88V74.93H144.26L146.37 72.85L149.92 68.6V66.59L148.19 65.05L149.15 62.75V61.02L147.9 60.44L147.81 57.18L149.15 55.93V53.25L147.42 52V49.81L150.78 47.79V42.11C154.23 44.24 158.28 45.47 162.62 45.47C175.1 45.47 185.22 35.28 185.22 22.73C185.22 10.17 175.09 0 162.62 0ZM162.62 36.14C155.25 36.14 149.28 30.15 149.28 22.74C149.28 15.33 155.25 9.31 162.62 9.31C169.98 9.31 175.94 15.32 175.94 22.73C175.94 30.14 169.98 36.14 162.62 36.14Z" fill="white"/>
<path d="M112.87 0.00444436C112.82 -0.00555544 112.77 0.00444436 112.72 0.00444436C112.68 0.00444436 112.64 0.00444436 112.59 0.00444436V0.0144444C105.07 0.104444 98.15 3.92444 94.04 8.13444C96.6 11.3245 98.49 15.0545 99.53 19.1245C101.69 15.2345 107.27 10.8445 112.83 11.0745C121.18 11.1645 128.1 17.9545 128.1 26.3145V26.4145C128.05 34.7945 121.24 41.5545 112.86 41.5545C104.47 41.5545 97.67 34.7945 97.62 26.4145V26.3145C97.62 20.2745 95.58 14.7145 92.16 10.2745C87.36 4.02444 79.81 0.00444436 71.32 0.00444436C56.8 0.00444436 45.04 11.7545 45 26.2645V26.4145C45.03 33.6545 47.98 40.2145 52.74 44.9545C57.5 49.6945 66.2 53.8145 74.12 52.6845V52.6245C80.28 51.8645 85.78 48.9845 89.87 44.7245C87.28 41.5545 85.35 37.8445 84.27 33.7845C82.12 37.7445 78.26 40.6445 73.67 41.4945V41.5645C63.87 42.9745 56.12 34.6645 56.07 26.4145C56.1 22.2345 57.81 18.4445 60.57 15.7045C63.32 12.9645 67.11 11.2745 71.31 11.2745C79.73 11.2745 86.55 17.8945 86.55 26.3145V26.3245C86.55 26.3545 86.55 26.3945 86.55 26.4245C86.57 32.5145 88.66 38.1245 92.16 42.5745C96.97 48.7045 104.46 52.6445 112.86 52.6445C127.39 52.6445 139.18 41.0645 139.18 26.5245V26.3245C139.19 11.8745 127.28 0.154444 112.87 0.00444436Z" fill="white"/>
<path d="M44.88 44.99C42.28 41.82 40.34 38.09 39.26 34.01C37.1 37.98 33.23 40.73 28.64 41.59C27.91 41.69 27.17 41.75 26.41 41.75C22.2 41.75 18.39 40.05 15.63 37.3C12.87 34.55 11.15 30.75 11.12 26.55C11.18 18.27 18.94 9.92 28.79 11.34C28.94 11.36 29.09 11.38 29.24 11.41C33.27 12.48 36.63 15.01 38.59 18.52C39.67 14.54 41.61 10.9 44.21 7.8C40 3.53 34.31 0.66 27.95 0V0.05V0.06C21.82 -0.39 15.37 2.09 10.74 5.44C9.64 6.24 8.64 7.08 7.77 7.94C2.99 12.71 0.03 19.29 0 26.56V26.71C0 26.95 0 27.18 0.01 27.42V27.43C0.42 41.66 12.08 53.07 26.41 53.07C27.16 53.07 27.9 53.04 28.63 52.98V52.99C35 52.31 40.68 49.37 44.88 44.99Z" fill="white"/>
</svg>
