<svg width="400" height="400" viewBox="0 0 400 400" fill="none" xmlns="http://www.w3.org/2000/svg">
<path d="M278.238 237.541L262.061 234.307L243.986 254.743V203.777L228.763 209.865V273.239C226.799 263.639 217.197 261.024 209.266 258.87C203.453 257.292 198.433 255.928 198.644 251.95C198.854 248.049 202.732 246.506 206.48 246.705C210.91 246.943 214.507 248.77 217.186 252.142L228.376 242.203C222.306 235.439 212.459 233.936 207.054 233.647C194.617 232.983 181.737 238.481 180.999 252.266C180.977 252.691 180.966 253.116 180.967 253.542C176.521 242.234 165.511 234.228 152.621 234.228C137.87 234.228 125.58 244.714 122.78 258.634V203.795L107.556 209.881V238.312C102.93 235.631 97.6734 234.221 92.3232 234.228C75.5034 234.226 61.8688 247.852 61.8688 264.664C61.8688 281.474 75.5034 295.101 92.3232 295.101C107.693 295.101 120.396 283.717 122.471 268.927C124.547 283.718 137.25 295.101 152.621 295.101C164.193 295.101 174.256 288.651 179.409 279.15L162.929 275.856C160.126 278.447 156.445 279.886 152.624 279.882C146.383 279.882 141.021 276.126 138.669 270.753H182.464C183.086 267.691 183.234 264.551 182.904 261.444C186.393 267.487 193.972 269.537 200.417 271.28C206.459 272.913 211.678 274.324 211.443 278.685C211.277 281.829 207.749 283.522 202.01 283.214C196.689 282.931 192.545 280.69 189.024 276.18L177.855 287.31C184.41 294.352 194.848 295.92 200.557 296.226C206.664 296.553 225.904 296.311 228.763 280.977V295.109H243.986V268.498L267.517 295.102H286.553L256.942 261.621L278.238 237.541ZM99.2594 278.211C97.1145 279.311 94.7374 279.884 92.3258 279.882C83.9168 279.882 77.0991 273.069 77.0991 264.664C77.0991 256.26 83.9168 249.446 92.3249 249.446C100.733 249.446 107.55 256.259 107.55 264.664C107.55 268.007 106.469 271.099 104.64 273.61C104.912 275.421 105.921 277.435 108.594 279.217C109.887 280.078 104.824 281.456 99.2594 278.211ZM138.67 258.576C141.019 253.202 146.383 249.446 152.624 249.446C158.866 249.446 164.229 253.203 166.579 258.576H138.67Z" fill="#030303"/>
<path d="M315.663 103C295.012 103 278.292 119.802 278.292 140.569C278.292 141.345 278.326 142.138 278.375 142.898V219.324L281.861 222.512V162.244H281.944C282.158 161.6 282.77 161.137 283.513 161.137C284.257 161.137 284.868 161.6 285.083 162.244H285.149C285.149 162.26 285.165 162.277 285.165 162.277V226.791H285.33L288.816 223.355L294.681 216.333V213.013L291.823 210.468L293.409 206.669V203.81L291.344 202.852L291.195 197.466L293.409 195.401V190.974L290.551 188.909V185.291L296.102 181.953V172.569C301.802 176.088 308.493 178.121 315.663 178.121C336.281 178.121 353 161.286 353 140.552C353 119.802 336.264 103 315.663 103ZM315.663 162.707C303.487 162.707 293.624 152.81 293.624 140.569C293.624 128.327 303.487 118.381 315.663 118.381C327.822 118.381 337.669 128.31 337.669 140.552C337.669 152.794 327.822 162.707 315.663 162.707Z" fill="#030303"/>
<path d="M233.471 103.007C233.389 102.991 233.306 103.007 233.223 103.007C233.157 103.007 233.091 103.007 233.009 103.007V103.024C220.585 103.173 209.153 109.484 202.362 116.439C206.592 121.709 209.714 127.871 211.432 134.595C215.001 128.169 224.22 120.916 233.405 121.296C247.2 121.445 258.633 132.662 258.633 146.474V146.639C258.55 160.484 247.299 171.652 233.455 171.652C219.594 171.652 208.36 160.484 208.277 146.639V146.474C208.277 136.495 204.907 127.31 199.257 119.974C191.327 109.649 178.853 103.007 164.827 103.007C140.839 103.007 121.41 122.419 121.344 146.391V146.639C121.394 158.6 126.267 169.438 134.131 177.269C141.995 185.1 156.368 191.906 169.453 190.039V189.94C179.63 188.685 188.716 183.927 195.473 176.889C191.194 171.652 188.006 165.522 186.222 158.815C182.67 165.357 176.292 170.148 168.709 171.553V171.668C152.519 173.998 139.715 160.269 139.633 146.639C139.682 139.733 142.507 133.472 147.067 128.945C151.61 124.418 157.872 121.626 164.81 121.626C178.721 121.626 189.988 132.563 189.988 146.474V146.49C189.988 146.54 189.988 146.606 189.988 146.656C190.021 156.717 193.474 165.985 199.257 173.337C207.203 183.464 219.577 189.973 233.455 189.973C257.46 189.973 276.938 170.842 276.938 146.821V146.49C276.954 122.618 257.278 103.255 233.471 103.007Z" fill="#030303"/>
<path d="M121.146 177.328C116.85 172.09 113.645 165.928 111.861 159.188C108.293 165.746 101.899 170.29 94.3158 171.71C93.1098 171.876 91.8873 171.975 90.6317 171.975C83.6764 171.975 77.3819 169.166 72.8222 164.623C68.2624 160.08 65.4208 153.802 65.3712 146.863C65.4704 133.184 78.2906 119.389 94.5637 121.735C94.8115 121.768 95.0593 121.801 95.3071 121.85C101.965 123.618 107.516 127.798 110.754 133.597C112.538 127.021 115.743 121.008 120.039 115.886C113.084 108.832 103.683 104.09 93.1759 103V103.083V103.099C83.0486 102.356 72.3926 106.453 64.7434 111.987C62.9261 113.309 61.2741 114.697 59.8367 116.118C51.9397 123.998 47.0496 134.869 47 146.879V147.127C47 147.524 47 147.904 47.0165 148.3V148.317C47.6939 171.826 66.9572 190.676 90.6317 190.676C91.8707 190.676 93.0933 190.627 94.2993 190.528V190.544C104.823 189.421 114.207 184.564 121.146 177.328Z" fill="#030303"/>
</svg>
