<svg width="102" height="65" viewBox="0 0 102 65" fill="none" xmlns="http://www.w3.org/2000/svg">
<path d="M77.0793 44.8471L71.6869 43.7691L65.662 50.581V33.5925L60.5876 35.6218V56.7463C59.9331 53.5462 56.7322 52.6745 54.0887 51.9567C52.1511 51.4307 50.4777 50.9759 50.5482 49.6501C50.6181 48.3497 51.9106 47.8354 53.1601 47.9016C54.6367 47.981 55.8356 48.5899 56.7287 49.714L60.4586 46.4009C58.4355 44.1463 55.153 43.6454 53.3515 43.549C49.2056 43.3278 44.9123 45.1603 44.6663 49.7552C44.659 49.8969 44.6555 50.0387 44.6558 50.1805C43.1737 46.4114 39.5035 43.7426 35.207 43.7426C30.29 43.7426 26.1933 47.2378 25.2601 51.8779V33.5983L20.1854 35.627V45.104C18.6432 44.2102 16.8912 43.7405 15.1078 43.7426C9.50118 43.742 4.9563 48.284 4.9563 53.888C4.9563 59.4914 9.50118 64.0337 15.1078 64.0337C20.231 64.0337 24.4652 60.2389 25.1571 55.309C25.849 60.2392 30.0835 64.0337 35.207 64.0337C39.0644 64.0337 42.4186 61.8835 44.1365 58.7167L38.6431 57.6185C37.7088 58.4824 36.4817 58.9618 35.2079 58.9607C33.1275 58.9607 31.3403 57.7087 30.5563 55.9176H45.1546C45.362 54.8968 45.4115 53.8504 45.3014 52.8147C46.4644 54.8291 48.9906 55.5124 51.1391 56.0933C53.1531 56.6377 54.8926 57.108 54.8142 58.5617C54.7589 59.6096 53.5829 60.1741 51.6701 60.0714C49.8964 59.9771 48.5152 59.2298 47.3414 57.7265L43.6184 61.4366C45.8035 63.7841 49.2826 64.3066 51.1857 64.4088C53.2213 64.5177 59.6347 64.4368 60.5876 59.3256V64.0363H65.662V55.1659L73.5057 64.034H79.851L69.9807 52.8736L77.0793 44.8471ZM17.4198 58.4037C16.7049 58.7704 15.9125 58.9613 15.1086 58.9607C12.3056 58.9607 10.033 56.6897 10.033 53.888C10.033 51.0866 12.3056 48.8153 15.1083 48.8153C17.911 48.8153 20.1833 51.0863 20.1833 53.888C20.1833 55.0025 19.8229 56.0329 19.2132 56.8701C19.3042 57.4737 19.6403 58.1451 20.5315 58.7388C20.9624 59.0261 19.2746 59.4852 17.4198 58.4037ZM30.5565 51.8587C31.3397 50.0673 33.1275 48.8153 35.2079 48.8153C37.2886 48.8153 39.0764 50.0675 39.8596 51.8587H30.5565Z" fill="white"/>
<path d="M89.5543 0C82.6706 0 77.0975 5.60058 77.0975 12.5228C77.0975 12.7817 77.1085 13.046 77.1251 13.2993V38.7745L78.287 39.8374V19.748H78.3146C78.3862 19.5332 78.5899 19.379 78.8377 19.379C79.0856 19.379 79.2893 19.5332 79.3609 19.748H79.3829C79.3829 19.7535 79.3884 19.759 79.3884 19.759V41.2637H79.4435L80.6055 40.1182L82.5604 37.7778V36.6709L81.6077 35.8228L82.1364 34.5562V33.6035L81.448 33.2841L81.3985 31.4888L82.1364 30.8005V29.3246L81.1837 28.6362V27.4302L83.034 26.3178V23.1898C84.9339 24.3628 87.1643 25.0402 89.5543 25.0402C96.427 25.0402 102 19.4286 102 12.5173C102 5.60058 96.4215 0 89.5543 0ZM89.5543 19.9022C85.4957 19.9022 82.208 16.6035 82.208 12.5228C82.208 8.44218 85.4957 5.12698 89.5543 5.12698C93.6074 5.12698 96.8896 8.43667 96.8896 12.5173C96.8896 16.598 93.6074 19.9022 89.5543 19.9022Z" fill="white"/>
<path d="M62.1571 0.00244749C62.1296 -0.00305936 62.1021 0.00244749 62.0745 0.00244749C62.0525 0.00244749 62.0305 0.00244749 62.0029 0.00244749V0.00795446C57.8617 0.0575171 54.0509 2.16118 51.7875 4.47961C53.1973 6.23635 54.2381 8.29044 54.8108 10.5318C56.0004 8.38957 59.0732 5.97201 62.1351 6.09867C66.7334 6.14823 70.5442 9.88746 70.5442 14.4913V14.5464C70.5167 19.1612 66.7665 22.8839 62.1516 22.8839C57.5313 22.8839 53.7866 19.1612 53.759 14.5464V14.4913C53.759 11.1651 52.6356 8.10321 50.7522 5.65811C48.1089 2.21624 43.9511 0.00244749 39.2757 0.00244749C31.2796 0.00244749 24.8034 6.47315 24.7814 14.4638V14.5464C24.7979 18.5334 26.4224 22.146 29.0438 24.7563C31.6651 27.3666 36.4561 29.6354 40.8177 29.0132V28.9801C44.2099 28.5616 47.2388 26.9756 49.4911 24.6296C48.0648 22.8839 47.002 20.8408 46.4072 18.605C45.2232 20.7857 43.0975 22.3828 40.5698 22.8509V22.8894C35.173 23.6659 30.9051 19.0896 30.8776 14.5464C30.8941 12.2444 31.8358 10.1573 33.3557 8.6484C34.8701 7.13949 36.9573 6.20881 39.2702 6.20881C43.9071 6.20881 47.6628 9.85442 47.6628 14.4913V14.4968C47.6628 14.5133 47.6628 14.5353 47.6628 14.5519C47.6738 17.9056 48.8248 20.995 50.7522 23.4456C53.4011 26.8214 57.5258 28.9911 62.1516 28.9911C70.1533 28.9911 76.646 22.6141 76.646 14.6069V14.4968C76.6515 6.53923 70.0927 0.085052 62.1571 0.00244749Z" fill="white"/>
<path d="M24.7153 24.7758C23.2834 23.0301 22.2151 20.976 21.6203 18.7292C20.4308 20.9155 18.2996 22.4299 15.7719 22.9035C15.3699 22.9585 14.9624 22.9916 14.5439 22.9916C12.2255 22.9916 10.1273 22.0554 8.60739 20.541C7.08746 19.0266 6.14026 16.9339 6.12374 14.621C6.15679 10.0612 10.4302 5.46291 15.8546 6.2449C15.9372 6.25591 16.0198 6.26693 16.1024 6.28345C18.3217 6.87269 20.172 8.26595 21.2514 10.1989C21.8461 8.00713 22.9145 6.00259 24.3463 4.29543C22.0279 1.94396 18.8944 0.36346 15.392 0V0.0275348V0.0330418C12.0162 -0.214772 8.4642 1.15096 5.91448 2.99579C5.30871 3.43635 4.75802 3.89893 4.27891 4.37253C1.64658 6.99935 0.0165209 10.6229 0 14.6265V14.7091C0 14.8413 0 14.9679 0.00550696 15.1001V15.1056C0.231293 22.942 6.65241 29.2255 14.5439 29.2255C14.9569 29.2255 15.3644 29.2089 15.7664 29.1759V29.1814C19.2744 28.8069 22.4023 27.1879 24.7153 24.7758Z" fill="white"/>
</svg>
