<svg width="64" height="64" viewBox="0 0 64 64" fill="none" xmlns="http://www.w3.org/2000/svg">
<path d="M61.3334 10.6667V26.6667H45.3334" stroke="white" stroke-width="5.33333" stroke-linecap="round" stroke-linejoin="round"/>
<path d="M2.66663 53.3333V37.3333H18.6666" stroke="white" stroke-width="5.33333" stroke-linecap="round" stroke-linejoin="round"/>
<path d="M9.35996 24C10.7124 20.1781 13.011 16.7611 16.0412 14.0678C19.0714 11.3745 22.7345 9.49268 26.6887 8.598C30.6429 7.70331 34.7593 7.82489 38.6538 8.95137C42.5483 10.0779 46.094 12.1725 48.96 15.04L61.3333 26.6666M2.66663 37.3333L15.04 48.96C17.906 51.8274 21.4516 53.9221 25.3461 55.0486C29.2406 56.1751 33.357 56.2966 37.3112 55.402C41.2654 54.5073 44.9285 52.6255 47.9587 49.9322C50.9889 47.2389 53.2875 43.8219 54.64 40" stroke="white" stroke-width="5.33333" stroke-linecap="round" stroke-linejoin="round"/>
</svg>
